<svg height="196" viewBox="0 0 196 196" width="196" xmlns="http://www.w3.org/2000/svg"><g fill="none" fill-rule="evenodd"><circle cx="98" cy="98" fill="#37474f" r="98"/><g fill="#fff" transform="translate(24.056338 41.802817)"><path d="m112 86.8361962v-7.6703146c5.89172 2.3344552 10.53277 3.5016653 13.923289 3.5016653 3.91855 0 7.107534-1.146367 9.56705-3.4391356 2.459515-2.2927686 3.689254-5.2594277 3.689254-8.9000662 0-8.6708339-6.072271-13.0061858-18.216997-13.0061858h-3.251546v-5.5443035l2.876368-.0416865c11.394365 0 17.091462-4.0157587 17.091462-12.0473965 0-6.3085874-3.751747-9.4628338-11.255353-9.4628338-4.113088 0-8.642975 1.1533147-13.589797 3.4599789v-7.1700768c4.863448-1.6396769 9.58787-2.4595031 14.173407-2.4595031 12.617175 0 18.925668 4.766108 18.925668 14.2984671 0 7.253486-4.293666 12.4225594-12.881126 15.5073753 9.949226 2.3066641 14.923764 7.7536447 14.923764 16.3411052 0 5.808347-1.917559 10.3660247-5.752736 13.6731696-3.835176 3.307145-9.101517 4.9606927-15.79918 4.9606927-3.807386 0-8.61518-.6669772-14.423527-2.0009517z"/><path d="m90.2482394 102.890301c-2.6794483 1.169213-5.1030947 2.265335-7.271012 3.288397-2.1679172 1.023062-5.005654 2.094825-8.5132954 3.215322-2.9717518.925627-6.1992207 1.717271-9.6825034 2.374953-3.4832828.657683-7.3197081.98652-11.5093909.98652-7.8921932 0-15.0656995-1.108301-21.520734-3.324935-6.4550346-2.216635-12.0696125-5.687686-16.8439022-10.4132589-4.6768552-4.6281379-8.33059357-10.5106567-10.96132463-17.6477326-2.63073107-7.137076-3.94607687-15.431062-3.94607687-24.8822069 0-8.9639725 1.26662929-16.9778386 3.79992587-24.0418387s6.18703492-13.0317727 10.96132463-17.9034969c4.628138-4.72557246 10.2183576-8.33059429 16.7708267-10.81517363 6.552469-2.48457934 13.8234083-3.72685037 21.813036-3.72685037 5.846069 0 11.6798712.70638941 17.5015816 2.11918943 5.8217105 1.41280001 12.2888273 3.89734208 19.4015446 7.45370075v17.17274192h-1.0961324c-5.9922208-5.0178759-11.9356351-8.6716143-17.8304214-10.9613246-5.8947863-2.2897104-12.2035745-3.4345484-18.9265539-3.4345484-5.5050483 0-10.4619533.8890763-14.8708637 2.6672556-4.4089104 1.7781794-8.3427687 4.5428414-11.8016929 8.294069-3.3614897 3.6537932-5.9800021 8.2696826-7.855616 13.8478068-1.8756138 5.5781242-2.8134066 12.0208828-2.8134066 19.3284691 0 7.648607 1.0352259 14.225336 3.1057086 19.7303843 2.0704828 5.5050484 4.7377118 9.9869674 8.001767 13.4458916 3.4102069 3.6050759 7.3927817 6.2723048 11.9478439 8.0017669 4.5550621 1.7294621 9.3658176 2.5941806 14.4324107 2.5941806 6.9665656 0 13.4945781-1.1935549 19.5842334-3.5806998 6.0896552-2.3871448 11.789487-5.9678084 17.0996664-10.7420981h1.0230569z"/></g></g></svg>