<svg fill="none" height="82" viewBox="0 0 82 82" width="82" xmlns="http://www.w3.org/2000/svg" xmlns:xlink="http://www.w3.org/1999/xlink"><mask id="a" fill="#fff"><path clip-rule="evenodd" d="m55.2499 77.8205s-41.1845-20.5279-28.6828-43.9958z" fill="#fff" fill-rule="evenodd"/></mask><mask id="b" fill="#fff"><path clip-rule="evenodd" d="m4.45606 55.2439s20.52784-41.1844 43.99574-28.6827z" fill="#fff" fill-rule="evenodd"/></mask><mask id="c" fill="#fff"><path clip-rule="evenodd" d="m26.9501 4.17957s41.1844 20.52783 28.6828 43.99583z" fill="#fff" fill-rule="evenodd"/></mask><mask id="d" fill="#fff"><path clip-rule="evenodd" d="m77.7439 26.7561s-20.5278 41.1844-43.9958 28.6828z" fill="#fff" fill-rule="evenodd"/></mask><rect fill="#ff0a62" height="80" rx="40" width="80" x="1.00018" y="1.00015"/><g fill="#fff"><path d="m55.2499 77.8205c.8922-1.79.8925-1.7898.8927-1.7897-.0002-.0001-.0001-.0001-.0004-.0002-.0006-.0003-.0018-.0009-.0036-.0018-.0036-.0018-.0097-.0049-.0182-.0092-.0169-.0085-.0436-.022-.0795-.0403-.0718-.0367-.1808-.0927-.324-.1676-.2865-.1497-.7098-.3748-1.247-.6708-1.0747-.5922-2.6025-1.4672-4.3997-2.5906-3.603-2.2519-8.2489-5.4771-12.4929-9.3965-4.2625-3.9365-8.0008-8.4652-9.9473-13.301-1.9145-4.7564-2.1074-9.8137.7023-15.0878l-3.5304-1.8807c-3.4412 6.4599-3.1741 12.769-.8826 18.462 2.2595 5.6135 6.4731 10.617 10.9441 14.746 4.4894 4.146 9.3583 7.5196 13.0867 9.85 1.8684 1.1678 3.4605 2.0799 4.5892 2.7019.5646.3111 1.0139.55 1.3246.7124.1554.0813.2761.1434.3594.1858.0416.0213.0739.0376.0964.049.0112.0056.0201.0101.0264.0132.0032.0016.0057.0029.0077.0039.0009.0005.0019.001.0024.0012.0008.0004.0015.0007.8937-1.7892z" mask="url(#a)"/><path d="m4.45606 55.2439c1.78997.8922 1.7898.8926 1.7897.8928.00008-.0002.00006-.0001.0002-.0004.00029-.0006.00088-.0018.00179-.0036.00181-.0036.00486-.0097.00914-.0182.00856-.0169.02203-.0436.04035-.0795.03665-.0718.09267-.1808.16754-.324.14976-.2865.37479-.7099.6708-1.247.59225-1.0747 1.46728-2.6025 2.59062-4.3998 2.252-3.6029 5.4771-8.2488 9.3966-12.4929 3.9364-4.2624 8.4651-8.0008 13.301-9.9473 4.7563-1.9144 9.8136-2.1073 15.0877.7023l1.8807-3.5303c-6.4599-3.4412-12.769-3.1741-18.462-.8826-5.6135 2.2595-10.617 6.4731-14.746 10.9441-4.146 4.4894-7.51958 9.3583-9.84995 13.0867-1.16783 1.8684-2.07988 3.4605-2.70192 4.5892-.31114.5646-.55005 1.0139-.71246 1.3246-.08121.1553-.14332.2761-.18579.3594-.02123.0416-.03756.0738-.04891.0964-.00568.0112-.01012.02-.0133.0264-.00159.0032-.00287.0057-.00383.0076-.00048.001-.00097.002-.00121.0025-.00041.0008-.00074.0015 1.78923.8936z" mask="url(#b)"/><path d="m26.9501 4.17957c-.8922 1.78997-.8925 1.7898-.8927 1.7897.0001.00008.0001.00006.0004.0002.0005.00029.0017.00088.0035.00179.0036.00181.0097.00486.0182.00914.017.00856.0436.02203.0795.04036.0719.03664.1808.09267.3241.16753.2865.14976.7098.37479 1.2469.6708 1.0747.59225 2.6025 1.46728 4.3998 2.59062 3.603 2.25199 8.2489 5.47709 12.4929 9.39659 4.2624 3.9364 8.0008 8.4651 9.9473 13.301 1.9145 4.7563 2.1073 9.8136-.7023 15.0877l3.5303 1.8807c3.4412-6.4598 3.1742-12.769.8827-18.462-2.2595-5.6135-6.4732-10.617-10.9442-14.746-4.4894-4.146-9.3582-7.51957-13.0866-9.84994-1.8685-1.16783-3.4605-2.07988-4.5893-2.70192-.5646-.31114-1.0139-.55005-1.3245-.71246-.1554-.08121-.2762-.14332-.3594-.18579-.0416-.02123-.0739-.03756-.0964-.04891-.0113-.00568-.0201-.01011-.0265-.0133-.0031-.00159-.0057-.00287-.0076-.00383-.001-.00048-.002-.00097-.0024-.00121-.0009-.00041-.0015-.00074-.8937 1.78923z" mask="url(#c)"/><path d="m77.7439 26.7561c-1.79-.8922-1.7898-.8925-1.7897-.8927-.0001.0001 0 .0001-.0002.0004-.0003.0005-.0009.0017-.0018.0035-.0018.0036-.0048.0097-.0091.0182-.0086.017-.022.0436-.0404.0795-.0366.0719-.0926.1808-.1675.3241-.1498.2865-.3748.7098-.6708 1.2469-.5922 1.0747-1.4673 2.6025-2.5906 4.3998-2.252 3.603-5.4771 8.2489-9.3966 12.4929-3.9364 4.2624-8.4652 8.0008-13.301 9.9473-4.7563 1.9145-9.8136 2.1073-15.0877-.7023l-1.8807 3.5303c6.4598 3.4412 12.769 3.1742 18.462.8827 5.6135-2.2595 10.6169-6.4732 14.746-10.9442 4.146-4.4894 7.5196-9.3582 9.8499-13.0866 1.1679-1.8685 2.0799-3.4605 2.702-4.5893.3111-.5646.55-1.0139.7124-1.3245.0812-.1554.1433-.2762.1858-.3594.0212-.0416.0376-.0739.0489-.0964.0057-.0113.0101-.0201.0133-.0265.0016-.0031.0029-.0057.0038-.0076.0005-.001.001-.002.0013-.0024.0004-.0009.0007-.0015-1.7893-.8937z" mask="url(#d)"/></g></svg>